<svg width="35" height="23" viewBox="0 0 35 23" fill="none" xmlns="http://www.w3.org/2000/svg">
    <path d="m2.401 2.374-.966.259.518 1.931.966-.258-.518-1.932zm29.293 18.545a1 1 0 1 0 1.932-.518l-1.932.518zM4.418 3.955a1 1 0 0 0-.391-1.961l.391 1.961zm6.25-2.402a1 1 0 0 0-.13 1.996l.13-1.996zm2.916 2.398a1 1 0 0 0 .392-1.961l-.392 1.961zm6.692.183a1 1 0 1 0-.885 1.794l.885-1.794zm1.778 3.33a1 1 0 1 0 1.11-1.663l-1.11 1.664zm6.118 2.722a1 1 0 0 0-1.503 1.32l1.503-1.32zm.368 3.757a1 1 0 1 0 1.663-1.111l-1.663 1.11zm4.602 4.861a1 1 0 0 0-1.894.641l1.894-.64zM2.92 4.306c.5-.134 1-.25 1.5-.35l-.392-1.962c-.542.108-1.084.235-1.626.38l.518 1.932zm7.619-.757a23.34 23.34 0 0 1 3.046.402l.392-1.961a25.341 25.341 0 0 0-3.308-.437l-.13 1.996zm8.853 2.379c.92.454 1.81.967 2.663 1.537l1.11-1.664a25.65 25.65 0 0 0-2.888-1.667l-.885 1.794zm7.278 5.578c.673.766 1.299 1.58 1.871 2.437l1.663-1.111a25.355 25.355 0 0 0-2.031-2.646l-1.503 1.32zm4.579 7.94c.163.482.312.973.446 1.473l1.932-.518a25.854 25.854 0 0 0-.483-1.597l-1.895.641zM2.143 1.407.21 1.926l1.035 3.863 1.932-.517-1.035-3.864zm28.585 19.77a2 2 0 0 0 3.864-1.035l-3.864 1.035zM4.614 4.936a2 2 0 0 0-.783-3.923l.783 3.923zm6.12-4.38a2 2 0 1 0-.261 3.99l.26-3.99zm2.654 4.376a2 2 0 1 0 .783-3.923l-.783 3.923zm7.331-1.695a2 2 0 0 0-1.77 3.587l1.77-3.587zm.78 5.06a2 2 0 1 0 2.22-3.327L21.5 8.296zm7.424 1.229a2 2 0 1 0-3.005 2.64l3.005-2.64zm-1.214 4.972a2 2 0 1 0 3.326-2.222l-3.326 2.222zm6.38 3.986a2 2 0 0 0-3.788 1.282l3.789-1.282zM3.179 5.271c.479-.129.958-.24 1.436-.336l-.783-3.923c-.564.113-1.126.244-1.688.395l1.035 3.864zm7.295-.725c.984.064 1.958.194 2.915.385l.783-3.923a26.34 26.34 0 0 0-3.437-.454l-.261 3.992zm8.475 2.277c.881.435 1.733.927 2.55 1.472L23.72 4.97a26.642 26.642 0 0 0-3-1.733l-1.77 3.587zm6.97 5.342a22.34 22.34 0 0 1 1.79 2.332l3.327-2.222a26.331 26.331 0 0 0-2.112-2.75l-3.005 2.64zm4.383 7.6c.156.462.299.933.427 1.412l3.864-1.035a26.855 26.855 0 0 0-.502-1.66l-3.79 1.283z" fill="#3E94F1"/>
</svg>
