<svg width="81" height="78" viewBox="0 0 81 78" fill="none" xmlns="http://www.w3.org/2000/svg">
<path d="M81 63.4035L81 14.8712C79.1016 11.7071 68.9766 4.11336 66.4453 0.31649L30.3751 0.31649C26.853 0.31649 25.3126 3.39192 25.3126 6.64461L27.211 63.4035C27.211 66.6561 30.0662 69.293 33.5882 69.293L74.6228 69.293C78.1448 69.293 81 66.6561 81 63.4035Z" fill="url(#paint0_linear_198_5713)"/>
<g filter="url(#filter0_biii_198_5713)">
<path d="M25.3125 6.98249C25.3125 4.31353 27.4087 2.1151 30.0747 1.98816L63.0363 0.418553C64.4049 0.353385 65.7402 0.852651 66.7303 1.79968L78.1904 12.7616C79.1766 13.7048 79.7343 15.0102 79.7343 16.3748V64.293C79.7343 67.0544 77.4957 69.293 74.7343 69.293H30.3125C27.5511 69.293 25.3125 67.0544 25.3125 64.293V6.98249Z" fill="url(#paint1_linear_198_5713)" fill-opacity="0.14"/>
</g>
<g filter="url(#filter1_biii_198_5713)">
<path d="M1.26575 15.209C1.26575 12.5401 3.36198 10.3416 6.02792 10.2147L38.9896 8.64509C40.3581 8.57992 41.6934 9.07919 42.6835 10.0262L54.1437 20.9881C55.1298 21.9314 55.6876 23.2367 55.6876 24.6013V36.2427C55.6876 37.4213 56.5396 38.4272 57.7022 38.621C58.7585 38.797 59.5721 39.6487 59.6997 40.7119L61.1266 52.6031C61.2761 53.8482 62.2756 54.8194 63.5245 54.933C65.6125 55.1228 66.6686 57.5426 65.388 59.2026L52.7591 75.5735C51.8124 76.8007 50.3501 77.5195 48.8002 77.5195H6.26574C3.50432 77.5195 1.26575 75.2809 1.26575 72.5195V15.209Z" fill="#3680FF" fill-opacity="0.14"/>
</g>
<path d="M66.8424 0.393812C66.5903 0.14168 66.2481 0 65.8915 0H30.9287C29.1463 0.00180101 27.4372 0.710783 26.1765 1.97144C24.9158 3.2321 24.2069 4.94121 24.205 6.72362V8.06835H6.72363C4.94121 8.07015 3.2321 8.77913 1.97144 10.0398C0.710782 11.3005 0.00184419 13.0096 0 14.792V71.2704C0.00180101 73.0528 0.710782 74.7619 1.97144 76.0226C3.2321 77.2833 4.94121 77.9922 6.72363 77.994H49.7548C51.4484 77.9916 53.0788 77.3511 54.3215 76.2003C55.5636 75.0488 56.326 73.4718 56.4569 71.7831L58.0045 69.9257H73.9599C75.7423 69.9239 77.4514 69.2149 78.7121 67.9543C79.9727 66.6936 80.6817 64.9845 80.6835 63.2021V14.792C80.6835 14.4354 80.5418 14.0932 80.2897 13.8411L66.8424 0.393812ZM67.2363 4.5912L76.0922 13.4472H71.2704C70.2007 13.446 69.1753 13.0203 68.4188 12.2645C67.663 11.5081 67.2374 10.4827 67.2362 9.41295L67.2363 4.5912ZM49.7548 75.3038H6.72363C5.65385 75.3026 4.62847 74.8769 3.87204 74.1211C3.11623 73.3647 2.6906 72.3393 2.6894 71.2695V14.7911C2.6906 13.7213 3.11623 12.6959 3.87204 11.9395C4.62845 11.1837 5.65384 10.7581 6.72363 10.7569H40.3418V17.4805C40.3436 19.2629 41.0525 20.972 42.3132 22.2327C43.5739 23.4933 45.283 24.2023 47.0654 24.2041H53.789V37.6514H49.7548C49.0122 37.6514 48.4101 38.2535 48.4101 38.9961V53.7881H41.6865C41.1648 53.7881 40.6899 54.09 40.469 54.5625C40.2475 55.0349 40.3195 55.5926 40.6533 55.9937L53.7626 71.7246C53.6498 72.7092 53.1791 73.6174 52.4401 74.2772C51.7011 74.9369 50.7454 75.3025 49.7548 75.3037L49.7548 75.3038ZM43.0312 17.4806V12.6588L51.8872 21.5148H47.0654C45.9956 21.5136 44.9702 21.0879 44.2138 20.3321C43.458 19.5757 43.0324 18.5503 43.0312 17.4805L43.0312 17.4806ZM55.1337 69.1687L44.5573 56.4779H49.7548C50.1114 56.4779 50.4536 56.3362 50.7057 56.0841C50.9579 55.832 51.0995 55.4898 51.0995 55.1332V40.3412H59.1679V55.1332C59.1679 55.4898 59.3096 55.832 59.5617 56.0841C59.8138 56.3362 60.156 56.4779 60.5126 56.4779H65.7102L55.1337 69.1687ZM77.994 63.2015C77.9929 64.2713 77.5672 65.2967 76.8114 66.0531C76.055 66.8089 75.0296 67.2346 73.9598 67.2358H60.2461L69.6141 55.9942C69.9479 55.5931 70.02 55.0354 69.7984 54.563C69.5775 54.0905 69.1027 53.7886 68.581 53.7886H61.8573V38.9966C61.8573 38.64 61.7157 38.2978 61.4635 38.0457C61.2114 37.7936 60.8692 37.6519 60.5126 37.6519H56.4785V22.8599C56.4785 22.5033 56.3368 22.1611 56.0846 21.909L42.6374 8.46173C42.3853 8.2096 42.0431 8.06792 41.6865 8.06792H26.8945V6.72319C26.8957 5.65342 27.3213 4.62804 28.0771 3.87161C28.8335 3.1158 29.8589 2.69017 30.9287 2.68897H64.5468V9.4126C64.5486 11.195 65.2576 12.9041 66.5183 14.1648C67.779 15.4254 69.4881 16.1344 71.2705 16.1362H77.9941L77.994 63.2015Z" fill="white"/>
<path d="M63.2018 21.5157C62.4592 21.5157 61.8571 22.1178 61.8571 22.8604C61.8571 23.603 62.4592 24.2051 63.2018 24.2051H71.2701C72.0127 24.2051 72.6149 23.603 72.6149 22.8604C72.6149 22.1178 72.0127 21.5157 71.2701 21.5157H63.2018Z" fill="white"/>
<path d="M71.2701 37.6524H68.5807C67.8381 37.6524 67.236 38.2545 67.236 38.9971C67.236 39.7397 67.8381 40.3418 68.5807 40.3418H71.2701C72.0127 40.3418 72.6149 39.7397 72.6149 38.9971C72.6149 38.2545 72.0127 37.6524 71.2701 37.6524Z" fill="white"/>
<path d="M71.2701 45.7207H68.5807C67.8381 45.7207 67.236 46.3229 67.236 47.0655C67.236 47.808 67.8381 48.4102 68.5807 48.4102H71.2701C72.0127 48.4102 72.6149 47.808 72.6149 47.0655C72.6149 46.3229 72.0127 45.7207 71.2701 45.7207Z" fill="white"/>
<path d="M71.2701 29.584H63.2018C62.4592 29.584 61.8571 30.1862 61.8571 30.9287C61.8571 31.6713 62.4592 32.2735 63.2018 32.2735H71.2701C72.0127 32.2735 72.6149 31.6713 72.6149 30.9287C72.6149 30.1862 72.0127 29.584 71.2701 29.584Z" fill="white"/>
<path d="M21.5151 30.9287C21.5151 31.2853 21.6568 31.6275 21.9089 31.8797C22.1611 32.1318 22.5033 32.2735 22.8599 32.2735H47.0649C47.8075 32.2735 48.4096 31.6713 48.4096 30.9287C48.4096 30.1862 47.8075 29.584 47.0649 29.584H22.8599C22.1173 29.584 21.5151 30.1862 21.5151 30.9287Z" fill="white"/>
<path d="M9.41284 40.3418H30.9284C31.671 40.3418 32.2732 39.7397 32.2732 38.9971C32.2732 38.2545 31.671 37.6524 30.9284 37.6524H9.41284C8.67024 37.6524 8.06812 38.2545 8.06812 38.9971C8.06812 39.7397 8.67024 40.3418 9.41284 40.3418Z" fill="white"/>
<path d="M41.686 45.7207H30.9282C30.1856 45.7207 29.5835 46.3229 29.5835 47.0655C29.5835 47.808 30.1856 48.4102 30.9282 48.4102H41.686C42.4286 48.4102 43.0307 47.808 43.0307 47.0655C43.0307 46.3229 42.4286 45.7207 41.686 45.7207Z" fill="white"/>
<path d="M9.41284 56.4785H33.6179C34.3605 56.4785 34.9626 55.8764 34.9626 55.1338C34.9626 54.3912 34.3605 53.7891 33.6179 53.7891H9.41284C8.67024 53.7891 8.06812 54.3912 8.06812 55.1338C8.06812 55.8764 8.67024 56.4785 9.41284 56.4785Z" fill="white"/>
<path d="M9.41284 32.2735H17.4812C18.2238 32.2735 18.8259 31.6713 18.8259 30.9287C18.8259 30.1862 18.2238 29.584 17.4812 29.584H9.41284C8.67024 29.584 8.06812 30.1862 8.06812 30.9287C8.06812 31.6713 8.67024 32.2735 9.41284 32.2735Z" fill="white"/>
<path d="M41.6862 37.6524H36.3072C35.5647 37.6524 34.9625 38.2545 34.9625 38.9971C34.9625 39.7397 35.5647 40.3418 36.3072 40.3418H41.6862C42.4287 40.3418 43.0309 39.7397 43.0309 38.9971C43.0309 38.2545 42.4287 37.6524 41.6862 37.6524Z" fill="white"/>
<path d="M9.41284 48.4102H25.5495C26.2921 48.4102 26.8943 47.808 26.8943 47.0655C26.8943 46.3229 26.2921 45.7207 25.5495 45.7207H9.41284C8.67024 45.7207 8.06812 46.3229 8.06812 47.0655C8.06812 47.808 8.67024 48.4102 9.41284 48.4102Z" fill="white"/>
<path d="M17.4812 61.8574H9.41284C8.67024 61.8574 8.06812 62.4596 8.06812 63.2022C8.06812 63.9447 8.67024 64.5469 9.41284 64.5469H17.4812C18.2238 64.5469 18.8259 63.9447 18.8259 63.2022C18.8259 62.4596 18.2238 61.8574 17.4812 61.8574Z" fill="white"/>
<path d="M9.41284 24.2051H25.5495C26.2921 24.2051 26.8943 23.603 26.8943 22.8604C26.8943 22.1178 26.2921 21.5157 25.5495 21.5157H9.41284C8.67024 21.5157 8.06812 22.1178 8.06812 22.8604C8.06812 23.603 8.67024 24.2051 9.41284 24.2051Z" fill="white"/>
<path d="M38.9966 61.8574H22.8599C22.1173 61.8574 21.5151 62.4596 21.5151 63.2022C21.5151 63.9447 22.1173 64.5469 22.8599 64.5469H38.9966C39.7392 64.5469 40.3413 63.9447 40.3413 63.2022C40.3413 62.4596 39.7392 61.8574 38.9966 61.8574Z" fill="white"/>
<path d="M60.5123 13.4473H57.8229C57.0803 13.4473 56.4781 14.0495 56.4781 14.7921C56.4781 15.5346 57.0803 16.1368 57.8229 16.1368H60.5123C61.2549 16.1368 61.857 15.5346 61.857 14.7921C61.857 14.0495 61.2549 13.4473 60.5123 13.4473Z" fill="white"/>
<defs>
<filter id="filter0_biii_198_5713" x="-10.6875" y="-35.5871" width="126.422" height="140.88" filterUnits="userSpaceOnUse" color-interpolation-filters="sRGB">
<feFlood flood-opacity="0" result="BackgroundImageFix"/>
<feGaussianBlur in="BackgroundImageFix" stdDeviation="18"/>
<feComposite in2="SourceAlpha" operator="in" result="effect1_backgroundBlur_198_5713"/>
<feBlend mode="normal" in="SourceGraphic" in2="effect1_backgroundBlur_198_5713" result="shape"/>
<feColorMatrix in="SourceAlpha" type="matrix" values="0 0 0 0 0 0 0 0 0 0 0 0 0 0 0 0 0 0 127 0" result="hardAlpha"/>
<feOffset dy="4"/>
<feGaussianBlur stdDeviation="18"/>
<feComposite in2="hardAlpha" operator="arithmetic" k2="-1" k3="1"/>
<feColorMatrix type="matrix" values="0 0 0 0 1 0 0 0 0 1 0 0 0 0 1 0 0 0 0.36 0"/>
<feBlend mode="normal" in2="shape" result="effect2_innerShadow_198_5713"/>
<feColorMatrix in="SourceAlpha" type="matrix" values="0 0 0 0 0 0 0 0 0 0 0 0 0 0 0 0 0 0 127 0" result="hardAlpha"/>
<feOffset dy="4"/>
<feGaussianBlur stdDeviation="2"/>
<feComposite in2="hardAlpha" operator="arithmetic" k2="-1" k3="1"/>
<feColorMatrix type="matrix" values="0 0 0 0 1 0 0 0 0 1 0 0 0 0 1 0 0 0 0.15 0"/>
<feBlend mode="normal" in2="effect2_innerShadow_198_5713" result="effect3_innerShadow_198_5713"/>
<feColorMatrix in="SourceAlpha" type="matrix" values="0 0 0 0 0 0 0 0 0 0 0 0 0 0 0 0 0 0 127 0" result="hardAlpha"/>
<feOffset dy="1"/>
<feGaussianBlur stdDeviation="0.5"/>
<feComposite in2="hardAlpha" operator="arithmetic" k2="-1" k3="1"/>
<feColorMatrix type="matrix" values="0 0 0 0 1 0 0 0 0 1 0 0 0 0 1 0 0 0 0.05 0"/>
<feBlend mode="normal" in2="effect3_innerShadow_198_5713" result="effect4_innerShadow_198_5713"/>
</filter>
<filter id="filter1_biii_198_5713" x="-34.7343" y="-27.3606" width="136.679" height="140.88" filterUnits="userSpaceOnUse" color-interpolation-filters="sRGB">
<feFlood flood-opacity="0" result="BackgroundImageFix"/>
<feGaussianBlur in="BackgroundImageFix" stdDeviation="18"/>
<feComposite in2="SourceAlpha" operator="in" result="effect1_backgroundBlur_198_5713"/>
<feBlend mode="normal" in="SourceGraphic" in2="effect1_backgroundBlur_198_5713" result="shape"/>
<feColorMatrix in="SourceAlpha" type="matrix" values="0 0 0 0 0 0 0 0 0 0 0 0 0 0 0 0 0 0 127 0" result="hardAlpha"/>
<feOffset dy="4"/>
<feGaussianBlur stdDeviation="18"/>
<feComposite in2="hardAlpha" operator="arithmetic" k2="-1" k3="1"/>
<feColorMatrix type="matrix" values="0 0 0 0 1 0 0 0 0 1 0 0 0 0 1 0 0 0 0.36 0"/>
<feBlend mode="normal" in2="shape" result="effect2_innerShadow_198_5713"/>
<feColorMatrix in="SourceAlpha" type="matrix" values="0 0 0 0 0 0 0 0 0 0 0 0 0 0 0 0 0 0 127 0" result="hardAlpha"/>
<feOffset dy="4"/>
<feGaussianBlur stdDeviation="2"/>
<feComposite in2="hardAlpha" operator="arithmetic" k2="-1" k3="1"/>
<feColorMatrix type="matrix" values="0 0 0 0 1 0 0 0 0 1 0 0 0 0 1 0 0 0 0.15 0"/>
<feBlend mode="normal" in2="effect2_innerShadow_198_5713" result="effect3_innerShadow_198_5713"/>
<feColorMatrix in="SourceAlpha" type="matrix" values="0 0 0 0 0 0 0 0 0 0 0 0 0 0 0 0 0 0 127 0" result="hardAlpha"/>
<feOffset dy="1"/>
<feGaussianBlur stdDeviation="0.5"/>
<feComposite in2="hardAlpha" operator="arithmetic" k2="-1" k3="1"/>
<feColorMatrix type="matrix" values="0 0 0 0 1 0 0 0 0 1 0 0 0 0 1 0 0 0 0.05 0"/>
<feBlend mode="normal" in2="effect3_innerShadow_198_5713" result="effect4_innerShadow_198_5713"/>
</filter>
<linearGradient id="paint0_linear_198_5713" x1="74.6544" y1="1.58239" x2="38.7872" y2="44.4624" gradientUnits="userSpaceOnUse">
<stop stop-color="#FB64F3"/>
<stop offset="0.223958" stop-color="#D464F5"/>
<stop offset="0.45" stop-color="#AC64F8"/>
<stop offset="0.700256" stop-color="#6D57FF"/>
<stop offset="0.86" stop-color="#6D57FF"/>
<stop offset="1" stop-color="#6D57FF"/>
</linearGradient>
<linearGradient id="paint1_linear_198_5713" x1="52.5234" y1="0.31649" x2="52.5234" y2="69.293" gradientUnits="userSpaceOnUse">
<stop stop-color="#005BF8"/>
<stop offset="1" stop-color="#005BF8" stop-opacity="0"/>
</linearGradient>
</defs>
</svg>
