<svg width="204" height="201" viewBox="0 0 204 201" fill="none" xmlns="http://www.w3.org/2000/svg">
<g clip-path="url(#clip0_313_6011)">
<path d="M35.915 170.015L53.4862 154.378L88.6735 123.05L104.241 109.196L126.897 116.911L149.238 124.518L171.544 132.116L193.813 139.704C180.509 175.542 146.112 201.009 105.67 201.009C77.9745 201.009 53.1089 189.063 35.915 170.024V170.015Z" fill="url(#paint0_linear_313_6011)"/>
<path d="M105.679 6.10352e-05V109.385L104.861 110.114L91.5211 121.997L59.4959 150.516L43.5057 164.748L27.4976 178.99C10.4116 159.986 0 134.825 0 107.189C0 48.3686 47.1529 0.702229 105.679 6.10352e-05Z" fill="url(#paint1_linear_313_6011)"/>
<path d="M204 108.278C204 120.314 201.844 131.819 197.9 142.459L174.769 134.582L151.601 126.687L128.406 118.783L104.879 110.781V110.114L105.697 109.385V10.4336C105.921 10.4245 106.146 10.4245 106.361 10.4245C160.386 10.4245 204.009 54.139 204.009 108.278H204Z" fill="url(#paint2_linear_313_6011)"/>
<path d="M105.957 194.51C87.0115 194.51 68.2545 188.172 53.1537 176.676C52.9292 176.505 52.8932 176.19 53.0549 175.974C53.2256 175.758 53.54 175.713 53.7556 175.875C68.6857 187.245 87.2181 193.501 105.948 193.501C135.817 193.501 164.043 177.585 179.611 151.965C179.754 151.731 180.06 151.65 180.302 151.794C180.536 151.938 180.617 152.244 180.473 152.487C164.725 178.405 136.168 194.51 105.957 194.51Z" fill="white"/>
<path d="M173.834 154.765C173.924 154.963 174.167 155.053 174.364 154.963L179.925 152.37V158.51C179.916 158.735 180.096 158.915 180.32 158.915C180.545 158.915 180.724 158.735 180.724 158.51V151.731C180.733 151.596 180.662 151.47 180.545 151.389C180.428 151.317 180.284 151.308 180.159 151.362L174.032 154.216C173.96 154.252 173.906 154.297 173.861 154.36C173.789 154.468 173.771 154.612 173.834 154.747V154.765Z" fill="white"/>
<path d="M60.1696 176.298C60.1606 176.523 59.972 176.685 59.7474 176.676L53.6208 176.352L55.9205 182.051C56.0014 182.258 55.9026 182.492 55.6959 182.573C55.4893 182.654 55.2558 182.555 55.1749 182.348L52.6416 176.064C52.5877 175.938 52.6057 175.794 52.6866 175.677C52.7674 175.569 52.8932 175.506 53.0369 175.506L59.7833 175.857C59.8642 175.857 59.936 175.884 59.9989 175.929C60.1067 176.01 60.1696 176.136 60.1696 176.28V176.298Z" fill="white"/>
<path d="M23.1047 163.218C22.943 163.218 22.7813 163.137 22.6825 162.993C11.9655 146.528 6.29712 127.389 6.29712 107.666C6.29712 80.8034 16.6638 55.5073 35.4836 36.4408C50.4407 21.2901 69.3414 11.4058 90.1465 7.84994C90.425 7.80493 90.6765 7.98497 90.7214 8.26404C90.7664 8.5341 90.5867 8.79516 90.3082 8.84017C69.7097 12.36 50.9886 22.1544 36.1843 37.1519C17.5621 56.0294 7.30324 81.0734 7.30324 107.666C7.30324 127.2 12.9088 146.141 23.5269 162.444C23.6797 162.678 23.6168 162.984 23.3832 163.137C23.3024 163.191 23.2035 163.218 23.1137 163.218H23.1047Z" fill="white"/>
<path d="M23.5359 156.007C23.3113 156.007 23.1317 156.178 23.1317 156.403L23.0328 162.543L17.5171 159.851C17.3195 159.752 17.077 159.833 16.9782 160.04C16.8793 160.238 16.9692 160.481 17.1668 160.58L23.2484 163.542C23.3742 163.605 23.5179 163.596 23.6347 163.524C23.7515 163.452 23.8234 163.326 23.8234 163.191L23.9312 156.421C23.9312 156.34 23.9132 156.268 23.8683 156.205C23.7964 156.088 23.6796 156.016 23.5359 156.016V156.007Z" fill="white"/>
<path d="M85.6279 13.2332C85.4751 13.0712 85.4751 12.8191 85.6368 12.6661L90.0566 8.40807L84.3343 6.19354C84.1277 6.11252 84.0288 5.87847 84.1007 5.67142C84.1816 5.46437 84.4151 5.36534 84.6217 5.43736L90.928 7.87694C91.0537 7.92195 91.1525 8.03898 91.1795 8.17401C91.2064 8.30905 91.1615 8.44408 91.0627 8.5431L86.1938 13.2422C86.1399 13.2962 86.068 13.3322 85.9962 13.3503C85.8704 13.3773 85.7267 13.3412 85.6279 13.2332Z" fill="white"/>
<path d="M195.645 126.228C195.645 126.228 195.583 126.228 195.556 126.228C195.286 126.174 195.106 125.913 195.151 125.643C196.175 120.161 196.697 114.507 196.697 108.854C196.697 64.6175 165.12 27.2046 121.624 19.9038C121.354 19.8588 121.166 19.5977 121.21 19.3277C121.255 19.0576 121.507 18.8686 121.785 18.9136C142.752 22.4334 161.958 33.362 175.873 49.6739C189.941 66.1659 197.694 87.1859 197.694 108.863C197.694 114.579 197.164 120.287 196.131 125.832C196.086 126.075 195.879 126.246 195.636 126.246L195.645 126.228Z" fill="white"/>
<path d="M126.412 24.1708C126.565 24.0088 126.556 23.7567 126.385 23.6037L121.875 19.4357L127.544 17.1041C127.75 17.0231 127.849 16.7891 127.759 16.582C127.679 16.375 127.436 16.2759 127.238 16.366L120.986 18.9316C120.86 18.9856 120.77 19.0936 120.743 19.2287C120.717 19.3637 120.761 19.4987 120.869 19.5977L125.837 24.1888C125.891 24.2429 125.963 24.2789 126.035 24.2879C126.16 24.3149 126.304 24.2699 126.403 24.1618L126.412 24.1708Z" fill="white"/>
<path d="M192.771 119.657C192.978 119.567 193.211 119.666 193.292 119.873L195.655 125.544L199.778 120.998C199.931 120.836 200.182 120.818 200.344 120.971C200.506 121.124 200.515 121.376 200.371 121.538L195.825 126.552C195.735 126.651 195.592 126.705 195.457 126.678C195.322 126.651 195.205 126.561 195.152 126.435L192.546 120.188C192.519 120.116 192.51 120.035 192.519 119.963C192.546 119.828 192.627 119.72 192.762 119.657H192.771Z" fill="white"/>
<g style="mix-blend-mode:multiply" opacity="0.3">
<g style="mix-blend-mode:multiply">
<path d="M152.94 121.511C159.689 92.8552 141.979 64.1427 113.384 57.3795C84.7887 50.6162 56.1366 68.3632 49.3875 97.0186C42.6384 125.674 60.3482 154.386 88.9433 161.15C117.538 167.913 146.191 150.166 152.94 121.511Z" fill="#595959"/>
</g>
</g>
<path d="M104.987 163.047C136.729 163.047 162.462 137.26 162.462 105.451C162.462 73.642 136.729 47.8555 104.987 47.8555C73.2445 47.8555 47.5122 73.642 47.5122 105.451C47.5122 137.26 73.2445 163.047 104.987 163.047Z" fill="#101726"/>
</g>
<defs>
<linearGradient id="paint0_linear_313_6011" x1="126.205" y1="120.017" x2="105.059" y2="184.725" gradientUnits="userSpaceOnUse">
<stop stop-color="#4934D0"/>
<stop offset="0.21" stop-color="#4C37D8"/>
<stop offset="0.48" stop-color="#654EFC"/>
<stop offset="0.73" stop-color="#664FFE"/>
<stop offset="0.94" stop-color="#6D57FF"/>
</linearGradient>
<linearGradient id="paint1_linear_313_6011" x1="96.5517" y1="127.074" x2="63.6788" y2="86.1552" gradientUnits="userSpaceOnUse">
<stop stop-color="#E57100"/>
<stop offset="0.177083" stop-color="#F38900"/>
<stop offset="0.307292" stop-color="#FC9700"/>
<stop offset="0.77" stop-color="#F9BB43"/>
</linearGradient>
<linearGradient id="paint2_linear_313_6011" x1="186.618" y1="76.4463" x2="75.9074" y2="71.5876" gradientUnits="userSpaceOnUse">
<stop offset="0.0677083" stop-color="#3E94F1"/>
<stop offset="0.296875" stop-color="#51A4FE"/>
<stop offset="0.541667" stop-color="#57A7FD"/>
<stop offset="0.713542" stop-color="#77B8FF"/>
<stop offset="0.822917" stop-color="#047CB5"/>
<stop offset="1" stop-color="#0067B4"/>
</linearGradient>
<clipPath id="clip0_313_6011">
<rect width="204" height="201" fill="white"/>
</clipPath>
</defs>
</svg>
