<svg width="47" height="47" viewBox="0 0 47 47" fill="none" xmlns="http://www.w3.org/2000/svg"><circle cx="23.5" cy="23.5" r="20.5" fill="white" stroke="#3B4660" stroke-width="6"/><path d="M28.9071 16.0002C28.7633 16.0009 28.6258 16.0616 28.5246 16.1692M28.9071 16.0002L28.2174 31.4298M28.9071 16.0002C29.0514 15.9997 29.19 16.0599 29.2922 16.1676C29.3943 16.2754 29.4515 16.4217 29.4509 16.574M28.9071 16.0002L31 19.8387L31 19.8387C31 18.8253 30.3382 17.973 29.4509 17.7169L29.4509 16.574M28.5246 16.1692L28.4154 16.0664C28.5439 15.9297 28.7203 15.8511 28.9064 15.8502L28.9065 15.8502C29.0935 15.8496 29.2713 15.9276 29.401 16.0643L29.4011 16.0644C29.5303 16.2009 29.6015 16.3845 29.6009 16.5743M28.5246 16.1692C28.4234 16.2768 28.3668 16.4224 28.3674 16.574M28.5246 16.1692L28.4153 16.0665M29.6009 16.5743C29.6009 16.5744 29.6009 16.5745 29.6009 16.5746L29.4509 16.574M29.6009 16.5743L29.6009 16.574L29.4509 16.574M29.6009 16.5743L29.6009 17.6072C30.4689 17.9078 31.1069 18.7438 31.1479 19.7371L31.15 19.7379L31.15 19.8387C31.15 20.8862 30.4863 21.7793 29.5747 22.0817L29.6009 31.4291L29.6009 31.4298C29.6006 31.6183 29.5295 31.8002 29.4012 31.9358L29.4011 31.9358C29.2723 32.0717 29.0961 32.1495 28.9106 32.15L28.9105 32.15C28.7244 32.1503 28.5474 32.0726 28.4181 31.9369L28.418 31.9367C28.2893 31.8013 28.2177 31.619 28.2174 31.4301L28.2174 31.4298M28.2174 31.4298L28.2879 31.4297L28.2174 31.4297L28.2174 31.4298ZM28.2174 31.4296L28.3674 31.4294L28.3409 21.9549C27.4647 21.691 26.813 20.8439 26.813 19.8387C26.813 18.8234 27.4776 17.9691 28.3674 17.7148L28.3674 16.574M28.2174 31.4296L28.4153 16.0665M28.2174 31.4296L28.1912 22.0635C27.305 21.7459 26.663 20.868 26.663 19.8387C26.663 18.7993 27.3174 17.914 28.2174 17.6048L28.2174 16.5743M28.2174 31.4296L28.2174 16.5743M28.3674 16.574L28.2174 16.574L28.2174 16.5743M28.3674 16.574L28.2174 16.5746C28.2174 16.5745 28.2174 16.5744 28.2174 16.5743M28.4153 16.0665C28.2871 16.2027 28.2167 16.3856 28.2174 16.5743M28.4153 16.0665L28.2174 16.5743M28.9102 32C28.7665 32.0003 28.6286 31.9403 28.5267 31.8334L28.9102 32ZM28.9102 32C29.0535 31.9996 29.1909 31.9395 29.2922 31.8326C29.3936 31.7256 29.4507 31.5808 29.4509 31.4296L28.9102 32ZM24.3378 23.6805C25.2513 23.9915 25.9142 24.8895 25.9144 25.9434C25.9144 25.9436 25.9144 25.9437 25.9144 25.9438L25.789 25.9438L25.9144 25.9458L25.9144 25.9462L25.7644 25.945L24.3378 23.6805ZM24.3378 23.6805L24.3378 16.5739L24.3378 16.5737L24.1878 16.5737C24.1883 16.422 24.1316 16.2762 24.0303 16.1686L24.3378 23.6805ZM18.1198 15.8501L18.1199 15.8501L18.1198 15.8501ZM18.1198 15.8501C17.9338 15.8509 17.7573 15.9296 17.6287 16.0663L18.1198 15.8501ZM18.1199 32.15L18.1198 32.15C17.9343 32.1491 17.7586 32.0709 17.6302 31.9352C17.5019 31.7997 17.4312 31.6178 17.4309 31.4298L17.4309 31.4295L17.4309 23.7662C16.5159 23.4557 15.85 22.5575 15.85 21.5027C15.85 20.448 16.5158 19.5488 17.4309 19.2382L17.4309 16.5744C17.4309 16.5744 17.4309 16.5743 17.4309 16.5742L17.4309 16.5738L17.5809 16.5738C17.5803 16.4223 17.6368 16.2766 17.738 16.1691C17.8392 16.0614 17.9768 16.0007 18.1205 16.0001L18.1199 32.15ZM18.1199 32.15C18.3062 32.1506 18.4834 32.0732 18.6131 31.9373C18.7425 31.8016 18.8139 31.6189 18.8144 31.4299L18.8144 31.4295M18.1199 32.15L18.8144 31.4295M18.8144 31.4295L18.8144 23.7649C19.7269 23.453 20.3909 22.5559 20.3909 21.5029L20.3909 21.4954M18.8144 31.4295L20.3909 21.4954M20.3909 21.4954L20.3909 21.4952L20.3909 21.4954ZM24.3379 31.4292L24.3379 28.2068L23.1043 16.5738L22.9543 16.5738L22.9543 16.5741C22.9543 16.5742 22.9543 16.5743 22.9543 16.5744L22.9543 23.6815C22.0412 23.9931 21.3767 24.8902 21.3767 25.9437C21.3767 26.9971 22.0412 27.8942 22.9543 28.2058L22.9543 31.4293L22.9543 31.4295C22.9546 31.6185 23.026 31.8009 23.155 31.9365L23.1551 31.9366C23.2844 32.0723 23.4612 32.15 23.6473 32.1497L23.6475 32.1497C23.8329 32.1492 24.0092 32.0714 24.1379 31.9355L24.138 31.9355C24.2663 31.7999 24.3374 31.6181 24.3379 31.4296L24.3379 31.4292ZM23.6473 15.85C23.4607 15.8497 23.2831 15.9278 23.1537 16.0647L24.1394 16.0658C24.0106 15.929 23.8337 15.8505 23.6475 15.85L23.6473 15.85ZM18.8144 16.574C18.8149 16.3844 18.7439 16.2008 18.6145 16.0642L18.8144 16.5743L18.6644 16.5738L18.8144 16.5738L18.8144 16.574ZM18.8144 19.2396C18.7784 19.2273 18.7421 19.2159 18.7055 19.2055L18.6644 19.3497L18.8144 19.3497L18.8144 19.2396ZM29.7664 19.8387C29.7664 20.3591 29.3809 20.7546 28.9071 20.7546C28.4329 20.7546 28.0466 20.359 28.0466 19.8387C28.0466 19.3187 28.4326 18.924 28.9071 18.924C29.3813 18.924 29.7664 19.3185 29.7664 19.8387ZM24.5309 25.9438C24.5309 26.48 24.1352 26.8876 23.647 26.8876C23.1583 26.8876 22.7601 26.4794 22.7601 25.9438C22.7601 25.4083 23.1583 25 23.647 25C24.1352 25 24.5309 25.4077 24.5309 25.9438ZM19.0074 21.5028C19.0074 22.0383 18.6092 22.4466 18.1204 22.4466C17.6317 22.4466 17.2335 22.0383 17.2335 21.5028C17.2335 20.9672 17.6317 20.559 18.1204 20.559C18.6092 20.559 19.0074 20.9672 19.0074 21.5028Z" fill="#6D57FF" stroke="#6D57FF" stroke-width="0.3"/></svg>