<svg width="189" height="17" viewBox="0 0 189 17" fill="none" xmlns="http://www.w3.org/2000/svg">
<path d="M18.14 0.556V16H14.378V7.288L10.792 16H7.998L4.412 7.288V16H0.65V0.556H4.962L9.406 11.204L13.828 0.556H18.14ZM32.7329 11.468C33.4809 10.6613 33.8549 9.58333 33.8549 8.234C33.8549 6.88467 33.4809 5.80667 32.7329 5C31.9995 4.19333 31.0095 3.79 29.7629 3.79C28.5309 3.79 27.5409 4.19333 26.7929 5C26.0595 5.80667 25.6929 6.88467 25.6929 8.234C25.6929 9.58333 26.0595 10.6613 26.7929 11.468C27.5409 12.2747 28.5309 12.678 29.7629 12.678C31.0095 12.678 31.9995 12.2747 32.7329 11.468ZM24.1529 13.91C22.6275 12.414 21.8649 10.522 21.8649 8.234C21.8649 5.946 22.6275 4.06133 24.1529 2.58C25.6929 1.084 27.5702 0.336 29.7849 0.336C32.0142 0.336 33.8842 1.084 35.3949 2.58C36.9202 4.06133 37.6829 5.946 37.6829 8.234C37.6829 10.522 36.9202 12.414 35.3949 13.91C33.8695 15.406 31.9995 16.154 29.7849 16.154C27.5702 16.154 25.6929 15.406 24.1529 13.91ZM41.4248 0.556H48.1348C49.7041 0.556 50.9508 0.937333 51.8748 1.7C52.8134 2.46267 53.2828 3.43067 53.2828 4.604C53.2828 6.34933 52.2634 7.53 50.2248 8.146C51.2661 8.29267 52.0948 8.72533 52.7108 9.444C53.3268 10.1627 53.6348 11.006 53.6348 11.974C53.6348 13.206 53.1801 14.1887 52.2708 14.922C51.3761 15.6407 50.1221 16 48.5088 16H41.4248V0.556ZM45.1868 3.416V6.76H47.6508C48.1934 6.76 48.6261 6.62067 48.9488 6.342C49.2861 6.06333 49.4548 5.65267 49.4548 5.11C49.4548 4.55267 49.2861 4.13467 48.9488 3.856C48.6261 3.56267 48.1934 3.416 47.6508 3.416H45.1868ZM45.1868 13.14H48.0248C48.5381 13.14 48.9634 12.986 49.3008 12.678C49.6381 12.37 49.8068 11.9447 49.8068 11.402C49.8068 10.8593 49.6454 10.4267 49.3228 10.104C49.0001 9.78133 48.5821 9.62 48.0688 9.62H45.1868V13.14ZM57.569 16V0.556H61.331V16H57.569ZM65.9573 0.556H69.7193V13.14H74.4053V16H65.9573V0.556ZM87.1547 0.511999V3.372H81.5667V6.694H86.4947V9.554H81.5667V13.14H87.1547V16H77.8047V0.511999H87.1547ZM96.9505 3.306C96.4812 3.306 96.0925 3.43067 95.7845 3.68C95.4912 3.92933 95.3445 4.28867 95.3445 4.758C95.3445 5.22733 95.4839 5.60867 95.7625 5.902C96.0412 6.18067 96.4005 6.40067 96.8405 6.562C97.2952 6.70867 97.7939 6.85533 98.3365 7.002C98.8939 7.134 99.4439 7.30267 99.9865 7.508C100.529 7.69867 101.021 7.94067 101.461 8.234C101.915 8.52733 102.282 8.94533 102.561 9.488C102.839 10.016 102.979 10.654 102.979 11.402C102.979 12.7073 102.443 13.8293 101.373 14.768C100.317 15.692 98.9159 16.154 97.1705 16.154C95.4399 16.154 94.0392 15.736 92.9685 14.9C91.9125 14.064 91.3845 12.876 91.3845 11.336H95.3885C95.4912 12.568 96.1219 13.184 97.2805 13.184C97.8232 13.184 98.2485 13.0447 98.5565 12.766C98.8645 12.4727 99.0185 12.106 99.0185 11.666C99.0185 11.226 98.8792 10.8667 98.6005 10.588C98.3219 10.3093 97.9552 10.0893 97.5005 9.928C97.0605 9.76667 96.5619 9.62 96.0045 9.488C95.4619 9.34133 94.9192 9.16533 94.3765 8.96C93.8339 8.75467 93.3352 8.51267 92.8805 8.234C92.4405 7.94067 92.0812 7.53 91.8025 7.002C91.5239 6.45933 91.3845 5.82133 91.3845 5.088C91.3845 3.65067 91.9199 2.49933 92.9905 1.634C94.0612 0.768666 95.4252 0.336 97.0825 0.336C98.7545 0.336 100.104 0.717333 101.131 1.48C102.157 2.228 102.693 3.416 102.737 5.044H98.6445C98.5859 4.48667 98.4025 4.06133 98.0945 3.768C97.8012 3.46 97.4199 3.306 96.9505 3.306Z" fill="#6D57FF"/>
<path d="M107.279 16V0.819999H108.819V16H107.279ZM123.487 0.819999H125.027V16H123.487L114.973 3.284V16H113.433V0.819999H114.973L123.487 13.536V0.819999ZM130.741 4.824C130.741 5.42533 130.895 5.91667 131.203 6.298C131.526 6.67933 131.937 6.96533 132.435 7.156C132.934 7.332 133.484 7.486 134.085 7.618C134.687 7.75 135.288 7.89667 135.889 8.058C136.491 8.21933 137.041 8.432 137.539 8.696C138.038 8.94533 138.441 9.334 138.749 9.862C139.072 10.39 139.233 11.0427 139.233 11.82C139.233 12.9787 138.801 13.9907 137.935 14.856C137.07 15.7213 135.882 16.154 134.371 16.154C132.875 16.154 131.658 15.8167 130.719 15.142C129.781 14.4673 129.311 13.558 129.311 12.414H130.939C130.998 13.118 131.299 13.7047 131.841 14.174C132.384 14.6287 133.191 14.856 134.261 14.856C135.347 14.856 136.205 14.5773 136.835 14.02C137.481 13.4627 137.803 12.7733 137.803 11.952C137.803 11.116 137.51 10.4927 136.923 10.082C136.337 9.65667 135.625 9.36333 134.789 9.202C133.968 9.04067 133.139 8.85733 132.303 8.652C131.482 8.432 130.778 8.014 130.191 7.398C129.605 6.782 129.311 5.88733 129.311 4.714C129.311 3.54067 129.744 2.57267 130.609 1.81C131.489 1.04733 132.641 0.665999 134.063 0.665999C135.501 0.665999 136.63 0.996 137.451 1.656C138.273 2.316 138.771 3.196 138.947 4.296H137.209C137.151 3.68 136.843 3.14467 136.285 2.69C135.728 2.22067 134.965 1.986 133.997 1.986C133.029 1.986 132.245 2.228 131.643 2.712C131.042 3.196 130.741 3.9 130.741 4.824ZM143.53 16V0.819999H145.07V16H143.53ZM151.224 14.812H154.348C156.386 14.812 157.934 14.262 158.99 13.162C160.06 12.0473 160.596 10.4927 160.596 8.498C160.596 6.50333 160.06 4.956 158.99 3.856C157.934 2.74133 156.386 2.184 154.348 2.184H151.224V14.812ZM154.348 0.819999C156.797 0.819999 158.711 1.502 160.09 2.866C161.483 4.21533 162.18 6.09267 162.18 8.498C162.18 10.9033 161.49 12.7587 160.112 14.064C158.733 15.3547 156.812 16 154.348 16H149.684V0.819999H154.348ZM173.786 0.819999V2.074H167.604V7.75H173.126V8.982H167.604V14.768H173.786V16H166.064V0.819999H173.786ZM179.645 9.642V16H178.105V0.819999H182.747C184.448 0.819999 185.739 1.23067 186.619 2.052C187.499 2.85867 187.939 3.88533 187.939 5.132C187.939 6.37867 187.594 7.39067 186.905 8.168C186.216 8.93067 185.189 9.4 183.825 9.576L188.137 16H186.135L182.021 9.642H179.645ZM179.645 2.074V8.388H182.747C185.167 8.388 186.377 7.33933 186.377 5.242C186.377 3.13 185.167 2.074 182.747 2.074H179.645Z" fill="white"/>
</svg>
