<svg width="15" height="15" viewBox="0 0 15 15" fill="none" xmlns="http://www.w3.org/2000/svg">
<path d="M8.66672 0H14.4444C14.75 0 15 0.249998 15 0.555575V6.33328C15 6.63884 14.75 6.88886 14.4444 6.88886H8.66672C8.36117 6.88886 8.11114 6.63886 8.11114 6.33328V0.555575C8.11114 0.250024 8.36114 0 8.66672 0ZM9.22229 5.77771H13.8889V1.1111H9.22229V5.77771Z" fill="white"/>
<path d="M0.555389 0H6.3331C6.63865 0 6.88867 0.249998 6.88867 0.555575V6.33328C6.88867 6.63884 6.63867 6.88886 6.3331 6.88886H0.555389C0.249838 6.88886 -0.000185013 6.63886 -0.000185013 6.33328V0.555575C-0.000185013 0.250024 0.249813 0 0.555389 0ZM1.11096 5.77771H5.77757V1.1111H1.11096V5.77771Z" fill="white"/>
<path d="M8.66672 8.11115H14.4444C14.75 8.11115 15 8.36114 15 8.66672V14.4444C15 14.75 14.75 15 14.4444 15H8.66672C8.36117 15 8.11114 14.75 8.11114 14.4444V8.66672C8.11114 8.36117 8.36114 8.11115 8.66672 8.11115ZM9.22229 13.8889H13.8889V9.22224H9.22229V13.8889Z" fill="white"/>
<path d="M0.555389 8.11115H6.3331C6.63865 8.11115 6.88867 8.36114 6.88867 8.66672V14.4444C6.88867 14.75 6.63867 15 6.3331 15H0.555389C0.249838 15 -0.000185013 14.75 -0.000185013 14.4444V8.66672C-0.000185013 8.36117 0.249813 8.11115 0.555389 8.11115ZM1.11096 13.8889H5.77757V9.22224H1.11096V13.8889Z" fill="white"/>
</svg>
