<svg width="23" height="17" viewBox="0 0 23 17" fill="none" xmlns="http://www.w3.org/2000/svg">
<path fill-rule="evenodd" clip-rule="evenodd" d="M1.40642 0C0.629259 0 0 0.628162 0 1.40307V2.08329C0 2.85796 0.629259 3.48613 1.40642 3.48613H21.0936C21.8707 3.48613 22.5 2.85796 22.5 2.08329V1.40307C22.5 0.628162 21.8707 0 21.0936 0H1.40642ZM1.40642 6.30987C0.629259 6.30987 0 6.93731 0 7.71222V8.39316C0 9.16849 0.629259 9.79527 1.40642 9.79527H21.0936C21.8707 9.79527 22.5 9.16849 22.5 8.39316V7.71222C22.5 6.93731 21.8707 6.30987 21.0936 6.30987H1.40642ZM1.40642 12.6191C0.629259 12.6191 0 13.2473 0 14.0222V14.7024C0 15.4771 0.629259 16.1053 1.40642 16.1053H21.0936C21.8707 16.1053 22.5 15.4771 22.5 14.7024V14.0222C22.5 13.2473 21.8707 12.6191 21.0936 12.6191H1.40642Z" fill="white"/>
</svg>
