<svg width="16" height="24" viewBox="0 0 16 24" fill="none" xmlns="http://www.w3.org/2000/svg">
<path fill-rule="evenodd" clip-rule="evenodd" d="M4.36328 12.0909C4.36328 12.3148 4.4399 12.5295 4.57628 12.6878C4.71266 12.8461 4.89763 12.935 5.0905 12.935H13.516L10.3933 16.5582C10.2568 16.7167 10.1801 16.9317 10.1801 17.1558C10.1801 17.38 10.2568 17.595 10.3933 17.7535C10.5299 17.912 10.7151 18.001 10.9082 18.001C11.1013 18.001 11.2865 17.912 11.4231 17.7535L15.7864 12.6885C15.8541 12.6101 15.9078 12.517 15.9445 12.4144C15.9811 12.3119 16 12.2019 16 12.0909C16 11.9799 15.9811 11.8699 15.9445 11.7673C15.9078 11.6648 15.8541 11.5716 15.7864 11.4932L11.4231 6.42829C11.2865 6.26978 11.1013 6.18073 10.9082 6.18073C10.7151 6.18073 10.5299 6.26978 10.3933 6.42829C10.2568 6.5868 10.1801 6.80178 10.1801 7.02595C10.1801 7.25012 10.2568 7.4651 10.3933 7.62361L13.516 11.2467H5.0905C4.89763 11.2467 4.71266 11.3357 4.57628 11.494C4.4399 11.6523 4.36328 11.867 4.36328 12.0909ZM0.727214 23.9091C0.534345 23.9091 0.349375 23.8201 0.212996 23.6618C0.0766171 23.5035 0 23.2888 0 23.0649V1.11686C0 0.892977 0.0766171 0.678263 0.212996 0.519953C0.349375 0.361643 0.534345 0.272705 0.727214 0.272705C0.920083 0.272705 1.10505 0.361643 1.24143 0.519953C1.37781 0.678263 1.45443 0.892977 1.45443 1.11686V23.0649C1.45443 23.2888 1.37781 23.5035 1.24143 23.6618C1.10505 23.8201 0.920083 23.9091 0.727214 23.9091Z" fill="white"/>
</svg>
