<svg width="15" height="15" viewBox="0 0 15 15" fill="none" xmlns="http://www.w3.org/2000/svg">
<path d="M13.7585 0H1.2415C0.912101 0 0.5964 0.1308 0.3636 0.3636C0.1308 0.5964 0 0.9122 0 1.2416V2.8435C0 3.1728 0.1308 3.4885 0.3636 3.7213C0.5964 3.9543 0.912101 4.0851 1.2415 4.0851H13.7585C14.0875 4.0846 14.403 3.9536 14.6358 3.7209C14.8686 3.4881 14.9995 3.1726 15 2.8435V1.2415C15 0.912101 14.8692 0.5964 14.6363 0.3636C14.4035 0.1308 14.0877 0 13.7585 0ZM13.9358 2.8436C13.9358 2.8906 13.9171 2.9356 13.8839 2.9688C13.8505 3.0022 13.8055 3.0209 13.7585 3.0209H1.2415C1.1435 3.0209 1.0642 2.9414 1.0642 2.8436V1.2416C1.0642 1.1435 1.1435 1.0642 1.2415 1.0642H13.7585C13.8055 1.0642 13.8505 1.0829 13.8839 1.1161C13.9171 1.1494 13.9358 1.1945 13.9358 1.2416V2.8436ZM13.7585 10.9151L1.2415 10.9149C0.912101 10.9149 0.5964 11.0458 0.3636 11.2787C0.1308 11.5115 0 11.8273 0 12.1565V13.7585C0 14.0879 0.1308 14.4036 0.3636 14.6364C0.5964 14.8692 0.912101 15 1.2415 15H13.7585C14.0877 15 14.4034 14.8692 14.6362 14.6364C14.8692 14.4036 15 14.0879 15 13.7585V12.1565C14.9995 11.8274 14.8685 11.512 14.6357 11.2792C14.403 11.0464 14.0876 10.9156 13.7585 10.9151ZM13.9358 13.7586C13.9358 13.8056 13.9171 13.8506 13.8839 13.8839C13.8505 13.9172 13.8055 13.9358 13.7585 13.9358H1.2415C1.1435 13.9358 1.0642 13.8565 1.0642 13.7585V12.1565C1.0642 12.0586 1.1435 11.9791 1.2415 11.9791H13.7585C13.8055 11.9791 13.8505 11.9978 13.8839 12.0312C13.9171 12.0645 13.9358 12.1095 13.9358 12.1565V13.7586ZM13.7585 5.458L1.2415 5.4579C0.912101 5.4579 0.5964 5.5887 0.3636 5.8216C0.1308 6.0544 0 6.3702 0 6.6994V8.3014C0 8.6306 0.1308 8.9465 0.3636 9.1793C0.5964 9.4121 0.912101 9.5429 1.2415 9.5429H13.7585C14.0877 9.5429 14.4034 9.4121 14.6362 9.1793C14.8692 8.9465 15 8.6306 15 8.3014V6.6991C14.9995 6.37 14.8685 6.0545 14.6357 5.8218C14.403 5.589 14.0876 5.4584 13.7585 5.458ZM13.9358 8.3016C13.9358 8.3486 13.9171 8.3936 13.8839 8.4268C13.8505 8.4601 13.8055 8.4788 13.7585 8.4788H1.2415C1.1435 8.4788 1.0642 8.3994 1.0642 8.3014V6.6991C1.0642 6.6013 1.1435 6.5218 1.2415 6.5218H13.7585C13.8055 6.5218 13.8505 6.5405 13.8839 6.5737C13.9171 6.607 13.9358 6.6521 13.9358 6.6991V8.3016Z" fill="#6D57FF"/>
</svg>
