<svg width="103" height="41" viewBox="0 0 103 41" fill="none" xmlns="http://www.w3.org/2000/svg">
<path d="M18.338 0.489999V16H14.026V7.442L11.1 16H7.492L4.544 7.376V16H0.232V0.489999H5.446L9.34 10.566L13.146 0.489999H18.338ZM29.5485 16.154C28.0965 16.154 26.7619 15.8167 25.5445 15.142C24.3272 14.4527 23.3592 13.5067 22.6405 12.304C21.9365 11.0867 21.5845 9.71533 21.5845 8.19C21.5845 6.66467 21.9365 5.30067 22.6405 4.098C23.3592 2.88067 24.3272 1.93467 25.5445 1.26C26.7619 0.585333 28.0965 0.248 29.5485 0.248C31.0152 0.248 32.3499 0.585333 33.5525 1.26C34.7699 1.93467 35.7305 2.88067 36.4345 4.098C37.1385 5.30067 37.4905 6.66467 37.4905 8.19C37.4905 9.71533 37.1385 11.0867 36.4345 12.304C35.7305 13.5067 34.7699 14.4527 33.5525 15.142C32.3352 15.8167 31.0005 16.154 29.5485 16.154ZM29.5485 12.15C30.6485 12.15 31.5139 11.7907 32.1445 11.072C32.7899 10.3533 33.1125 9.39267 33.1125 8.19C33.1125 6.958 32.7899 5.99 32.1445 5.286C31.5139 4.56733 30.6485 4.208 29.5485 4.208C28.4339 4.208 27.5612 4.56733 26.9305 5.286C26.2999 5.99 25.9845 6.958 25.9845 8.19C25.9845 9.40733 26.2999 10.3753 26.9305 11.094C27.5612 11.798 28.4339 12.15 29.5485 12.15ZM50.649 8.036C51.5583 8.24133 52.277 8.696 52.805 9.4C53.3476 10.0893 53.619 10.8813 53.619 11.776C53.619 13.096 53.1643 14.13 52.255 14.878C51.3456 15.626 50.0696 16 48.427 16H40.749V0.489999H48.185C49.769 0.489999 51.0083 0.841999 51.903 1.546C52.8123 2.25 53.267 3.24 53.267 4.516C53.267 5.42533 53.025 6.188 52.541 6.804C52.0716 7.40533 51.441 7.816 50.649 8.036ZM45.061 6.65H47.239C48.3243 6.65 48.867 6.20267 48.867 5.308C48.867 4.384 48.3243 3.922 47.239 3.922H45.061V6.65ZM47.569 12.524C48.6543 12.524 49.197 12.0693 49.197 11.16C49.197 10.6907 49.0503 10.3313 48.757 10.082C48.4783 9.83267 48.075 9.708 47.547 9.708H45.061V12.524H47.569ZM61.1407 0.489999V16H56.8287V0.489999H61.1407ZM69.2283 12.7H74.0463V16H64.9163V0.489999H69.2283V12.7ZM81.3549 3.944V6.474H86.3049V9.752H81.3549V12.546H86.9649V16H77.0429V0.489999H86.9649V3.944H81.3549ZM96.2677 16.154C94.4637 16.154 92.9823 15.7287 91.8237 14.878C90.665 14.0127 90.0417 12.7807 89.9537 11.182H94.5517C94.5957 11.7247 94.757 12.1207 95.0357 12.37C95.3143 12.6193 95.6737 12.744 96.1137 12.744C96.5097 12.744 96.8323 12.6487 97.0817 12.458C97.3457 12.2527 97.4777 11.974 97.4777 11.622C97.4777 11.1673 97.265 10.8153 96.8397 10.566C96.4143 10.3167 95.725 10.038 94.7717 9.73C93.7597 9.39267 92.9383 9.07 92.3077 8.762C91.6917 8.43933 91.149 7.97733 90.6797 7.376C90.225 6.76 89.9977 5.96067 89.9977 4.978C89.9977 3.98067 90.247 3.13 90.7457 2.426C91.2443 1.70733 91.9337 1.16467 92.8137 0.797999C93.6937 0.431333 94.691 0.248 95.8057 0.248C97.6097 0.248 99.047 0.673333 100.118 1.524C101.203 2.36 101.782 3.54067 101.856 5.066H97.1697C97.155 4.59667 97.0083 4.24467 96.7297 4.01C96.4657 3.77533 96.121 3.658 95.6957 3.658C95.373 3.658 95.109 3.75333 94.9037 3.944C94.6983 4.13467 94.5957 4.406 94.5957 4.758C94.5957 5.05133 94.7057 5.308 94.9257 5.528C95.1603 5.73333 95.4463 5.91667 95.7837 6.078C96.121 6.22467 96.6197 6.41533 97.2797 6.65C98.2623 6.98733 99.069 7.32467 99.6997 7.662C100.345 7.98467 100.895 8.44667 101.35 9.048C101.819 9.63467 102.054 10.3827 102.054 11.292C102.054 12.216 101.819 13.0447 101.35 13.778C100.895 14.5113 100.228 15.0907 99.3477 15.516C98.4823 15.9413 97.4557 16.154 96.2677 16.154ZM0.65 40V24.82H2.19V40H0.65ZM20.378 24.82H21.918V40H20.378L11.864 27.284V40H10.324V24.82H11.864L20.378 37.536V24.82ZM31.1527 28.824C31.1527 29.4253 31.3067 29.9167 31.6147 30.298C31.9373 30.6793 32.348 30.9653 32.8467 31.156C33.3453 31.332 33.8953 31.486 34.4967 31.618C35.098 31.75 35.6993 31.8967 36.3007 32.058C36.902 32.2193 37.452 32.432 37.9507 32.696C38.4493 32.9453 38.8527 33.334 39.1607 33.862C39.4833 34.39 39.6447 35.0427 39.6447 35.82C39.6447 36.9787 39.212 37.9907 38.3467 38.856C37.4813 39.7213 36.2933 40.154 34.7827 40.154C33.2867 40.154 32.0693 39.8167 31.1307 39.142C30.192 38.4673 29.7227 37.558 29.7227 36.414H31.3507C31.4093 37.118 31.71 37.7047 32.2527 38.174C32.7953 38.6287 33.602 38.856 34.6727 38.856C35.758 38.856 36.616 38.5773 37.2467 38.02C37.892 37.4627 38.2147 36.7733 38.2147 35.952C38.2147 35.116 37.9213 34.4927 37.3347 34.082C36.748 33.6567 36.0367 33.3633 35.2007 33.202C34.3793 33.0407 33.5507 32.8573 32.7147 32.652C31.8933 32.432 31.1893 32.014 30.6027 31.398C30.016 30.782 29.7227 29.8873 29.7227 28.714C29.7227 27.5407 30.1553 26.5727 31.0207 25.81C31.9007 25.0473 33.052 24.666 34.4747 24.666C35.912 24.666 37.0413 24.996 37.8627 25.656C38.684 26.316 39.1827 27.196 39.3587 28.296H37.6207C37.562 27.68 37.254 27.1447 36.6967 26.69C36.1393 26.2207 35.3767 25.986 34.4087 25.986C33.4407 25.986 32.656 26.228 32.0547 26.712C31.4533 27.196 31.1527 27.9 31.1527 28.824ZM47.461 40V24.82H49.001V40H47.461ZM58.675 38.812H61.799C63.8377 38.812 65.385 38.262 66.441 37.162C67.5117 36.0473 68.047 34.4927 68.047 32.498C68.047 30.5033 67.5117 28.956 66.441 27.856C65.385 26.7413 63.8377 26.184 61.799 26.184H58.675V38.812ZM61.799 24.82C64.2483 24.82 66.1623 25.502 67.541 26.866C68.9343 28.2153 69.631 30.0927 69.631 32.498C69.631 34.9033 68.9417 36.7587 67.563 38.064C66.1843 39.3547 64.263 40 61.799 40H57.135V24.82H61.799ZM84.7575 24.82V26.074H78.5755V31.75H84.0975V32.982H78.5755V38.768H84.7575V40H77.0355V24.82H84.7575ZM94.1363 33.642V40H92.5963V24.82H97.2383C98.9396 24.82 100.23 25.2307 101.11 26.052C101.99 26.8587 102.43 27.8853 102.43 29.132C102.43 30.3787 102.086 31.3907 101.396 32.168C100.707 32.9307 99.6803 33.4 98.3163 33.576L102.628 40H100.626L96.5123 33.642H94.1363ZM94.1363 26.074V32.388H97.2383C99.6583 32.388 100.868 31.3393 100.868 29.242C100.868 27.13 99.6583 26.074 97.2383 26.074H94.1363Z" fill="#1C2333"/>
</svg>
