<svg width="19" height="18" viewBox="0 0 19 18" fill="none" xmlns="http://www.w3.org/2000/svg">
<path d="M14.7093 12.3812C15.823 10.7419 16.2797 8.75119 15.9903 6.79701C15.7011 4.84304 14.6866 3.06528 13.1443 1.81055C11.6022 0.555817 9.643 -0.086395 7.64841 0.00935152C5.65367 0.10498 3.76662 0.931631 2.35421 2.32815C0.942046 3.72452 0.10629 5.59095 0.0094346 7.56369C-0.0872655 9.53619 0.562131 11.4739 1.83096 12.9987C3.09989 14.5238 4.89731 15.527 6.87328 15.8132C8.84928 16.0993 10.8622 15.6476 12.52 14.5462L15.559 17.5515C15.9502 17.9384 16.5203 18.0893 17.0545 17.9478C17.5887 17.8062 18.006 17.3936 18.1492 16.8652C18.2923 16.3369 18.1396 15.7732 17.7485 15.3864L14.7093 12.3812ZM8.04489 14.06C6.40776 14.06 4.83773 13.4168 3.68026 12.272C2.5228 11.1273 1.87228 9.57466 1.87228 7.95578C1.87228 6.3368 2.52266 4.78415 3.68026 3.63951C4.83787 2.49487 6.40787 1.85155 8.04489 1.85155C9.68201 1.85155 11.252 2.49473 12.4095 3.63951C13.5672 4.78426 14.2175 6.3369 14.2175 7.95578C14.2157 9.57423 13.5647 11.1257 12.4076 12.2703C11.2503 13.4146 9.68136 14.0583 8.04474 14.0602L8.04489 14.06Z" fill="white"/>
</svg>
