<svg width="15" height="13" viewBox="0 0 15 13" fill="none" xmlns="http://www.w3.org/2000/svg">
<path d="M12.4272 12.5243H6.18809C6.13108 12.5243 6.07454 12.5147 6.02086 12.4961C4.81372 12.0798 4.81372 11.6037 4.81372 11.4469V5.71259C4.81372 5.57613 4.86811 5.4454 4.96449 5.3495C5.65491 4.66171 6.99463 3.15496 7.11085 2.75683C7.17025 2.55405 7.21892 2.32551 7.27021 2.08382C7.45724 1.20451 7.71346 0 8.83089 0C9.33736 0 9.79876 0.294146 10.1306 0.828253C10.5762 1.54682 10.8059 2.80544 10.4164 4.10059H13.1393C13.8557 4.10059 14.5036 4.53667 14.7894 5.21136C15.0077 5.72498 14.975 6.28585 14.7174 6.76532C14.9285 7.06447 15.0075 7.46953 14.9171 7.89801C14.8424 8.25204 14.6704 8.54305 14.439 8.73653C14.5337 9.03949 14.5304 9.3914 14.4178 9.75636C14.3209 10.0705 14.1355 10.3866 13.8824 10.5947C13.918 10.8406 13.8817 11.1138 13.7713 11.3922C13.5477 11.9547 13.0145 12.5242 12.4272 12.5242L12.4272 12.5243ZM6.27787 11.4984H12.4174C12.5114 11.4717 12.7635 11.2348 12.8489 10.9216C12.8783 10.815 12.8773 10.7198 12.8466 10.6912C12.6834 10.5373 12.6397 10.2951 12.7378 10.0938C12.8291 9.90582 13.0291 9.79489 13.2292 9.8061C13.3044 9.75171 13.4532 9.53628 13.4761 9.25956C13.4857 9.13956 13.473 8.9802 13.3568 8.90124C13.1586 8.76645 13.0799 8.51238 13.1674 8.2893C13.2552 8.06625 13.4861 7.93432 13.7226 7.96963H13.7235C13.7848 7.96963 13.8774 7.85941 13.9136 7.68741C13.9451 7.53831 13.9241 7.35605 13.8244 7.31216C13.6708 7.2444 13.5603 7.10604 13.5279 6.94143C13.4954 6.77683 13.5458 6.60673 13.6627 6.48579C14.0103 6.12628 13.9065 5.75482 13.8457 5.61191C13.7209 5.31705 13.4434 5.12668 13.14 5.12668L9.66415 5.12644C9.48666 5.12644 9.32181 5.03484 9.22853 4.88406C9.13526 4.73329 9.12595 4.54483 9.20492 4.38571C9.76649 3.25301 9.65699 2.01057 9.25907 1.3689C9.12357 1.15061 8.96779 1.02585 8.83157 1.02585C8.56629 1.02585 8.42769 1.57692 8.27453 2.29711C8.22157 2.54688 8.1667 2.80524 8.09632 3.04548C7.88114 3.77883 6.33429 5.41389 5.84028 5.92225V11.2889C5.93881 11.3519 6.1132 11.4354 6.27804 11.4984L6.27787 11.4984Z" fill="#929292"/>
<path d="M4.79124 13H1.04799C0.470434 13 0 12.53 0 11.9528L0.000238561 4.7628C0.000238561 4.18549 0.470441 3.71555 1.04823 3.71555H4.79099C5.36855 3.71555 5.83898 4.18551 5.83898 4.7628V11.9528C5.83898 12.5303 5.36878 13 4.79124 13H4.79124ZM1.04799 4.7413L1.02604 11.9526L4.79122 11.9739C4.80363 11.9739 4.81317 11.9646 4.81317 11.9526V4.76268L1.04799 4.7413Z" fill="#929292"/>
</svg>
