<svg width="29" height="30" viewBox="0 0 29 30" fill="none" xmlns="http://www.w3.org/2000/svg">
<g filter="url(#filter0_biii_357_12284)">
<path fill-rule="evenodd" clip-rule="evenodd" d="M3.27637 0.963379C1.61951 0.963379 0.276367 2.30653 0.276367 3.96338V25.2967C0.276367 26.9536 1.61951 28.2967 3.27637 28.2967H14.8478C16.5047 28.2967 17.8478 26.9536 17.8478 25.2967V19.1856L19.8 18.5348L28.2603 18.5348C28.2603 12.6432 23.655 7.82712 17.8478 7.49018V3.96338C17.8478 2.30652 16.5047 0.963379 14.8478 0.963379H3.27637Z" fill="#3680FF" fill-opacity="0.14"/>
</g>
<path d="M11.4802 25.5842H6.88836C6.52595 25.5842 6.23242 25.8778 6.23242 26.2402C6.23242 26.6026 6.52596 26.8961 6.88836 26.8961H11.4802C11.8427 26.8961 12.1364 26.6026 12.1364 26.2402C12.1364 25.8778 11.8427 25.5842 11.4802 25.5842Z" fill="white"/>
<path d="M18.3682 7.23906V1.96811C18.3682 1.44599 18.1609 0.94539 17.7919 0.576331C17.4228 0.207284 16.9222 0 16.4001 0H1.96811C1.44622 0 0.945624 0.20729 0.576565 0.576331C0.207518 0.945378 0 1.446 0 1.96811V27.5521C0 28.0742 0.207518 28.5748 0.576565 28.9439C0.945612 29.3129 1.44623 29.5202 1.96811 29.5202H16.4001C16.9222 29.5202 17.4228 29.3129 17.7919 28.9439C18.1609 28.5748 18.3682 28.0742 18.3682 27.5521V20.2412C19.1084 20.0159 19.6877 19.4366 19.913 18.6964H27.8799C28.054 18.6964 28.2208 18.6273 28.3439 18.5042C28.467 18.3813 28.5361 18.2143 28.5361 18.0404C28.5352 15.284 27.4828 12.6313 25.5931 10.6241C23.7037 8.61689 21.1195 7.40633 18.3678 7.23935L18.3682 7.23906ZM12.0577 1.31164L11.4018 2.62352L7.62299 2.62375L6.96705 1.31187L12.0577 1.31164ZM17.0564 27.5516C17.0564 27.7257 16.9874 27.8925 16.8643 28.0156C16.7412 28.1387 16.5744 28.2078 16.4003 28.2078H1.96826C1.60585 28.2078 1.31232 27.914 1.31232 27.5516V1.96764C1.31232 1.60523 1.60586 1.31147 1.96826 1.31147H5.49766L6.44874 3.2107C6.55788 3.42875 6.72536 3.61201 6.93287 3.73991C7.14016 3.86803 7.37925 3.93576 7.6229 3.93553H11.4015C11.6454 3.93575 11.8842 3.86803 12.0917 3.73991C12.299 3.61201 12.4667 3.42875 12.5759 3.2107L13.5269 1.31147H16.4002C16.5743 1.31147 16.7411 1.38056 16.8642 1.50365C16.9873 1.62675 17.0563 1.79353 17.0563 1.96765V7.23861C14.3047 7.40563 11.7206 8.61621 9.83097 10.6234C7.94157 12.6304 6.88893 15.283 6.88822 18.0397C6.88822 18.2136 6.95732 18.3806 7.08041 18.5035C7.20327 18.6266 7.37029 18.6957 7.54418 18.6957H15.5111C15.7367 19.4358 16.316 20.0151 17.0561 20.2405L17.0564 27.5516ZM17.7124 19.0236V19.0239C17.4513 19.0239 17.201 18.9202 17.0166 18.7356C16.832 18.5512 16.7283 18.3009 16.7283 18.0398C16.7283 17.7788 16.832 17.5285 17.0166 17.344C17.201 17.1594 17.4513 17.0558 17.7124 17.0558C17.9732 17.0558 18.2235 17.1594 18.4082 17.344C18.5926 17.5284 18.6964 17.7788 18.6964 18.0398C18.6964 18.3009 18.5926 18.5512 18.4082 18.7356C18.2235 18.9202 17.9732 19.0239 17.7124 19.0239V19.0236ZM19.9132 17.3836V17.3839C19.8667 17.2331 19.8063 17.0871 19.7329 16.9476L21.6549 15.0255C21.8769 14.7644 21.8606 14.3766 21.6174 14.135C21.3742 13.8936 20.9862 13.8799 20.7267 14.1039L18.8046 16.026C18.1974 15.7018 17.4769 15.6672 16.8416 15.9315C16.2059 16.1957 15.7227 16.7313 15.5246 17.3903H8.22313C8.36704 15.3286 9.1813 13.3703 10.542 11.8143L11.4505 12.7229C11.5736 12.8451 11.74 12.9132 11.9132 12.9132C12.1781 12.9135 12.4174 12.754 12.5193 12.5094C12.6211 12.2646 12.5657 11.9827 12.3788 11.7947L11.4702 10.8861C13.0265 9.52661 14.9847 8.71323 17.0464 8.57049V9.83985C17.0464 10.2023 17.3399 10.4958 17.7023 10.4958C18.0645 10.4958 18.3583 10.2022 18.3583 9.83985V8.55403C20.4197 8.6968 22.378 9.51015 23.9342 10.8699L23.0257 11.7784C22.8387 11.9663 22.7834 12.2484 22.8854 12.493C22.9872 12.7378 23.2263 12.897 23.4915 12.8968C23.6647 12.897 23.831 12.8286 23.9539 12.7067L24.8821 11.8079C26.2427 13.3637 27.0573 15.322 27.2012 17.3839L19.9132 17.3836Z" fill="white"/>
<defs>
<filter id="filter0_biii_357_12284" x="-35.7236" y="-35.0366" width="99.9839" height="99.3333" filterUnits="userSpaceOnUse" color-interpolation-filters="sRGB">
<feFlood flood-opacity="0" result="BackgroundImageFix"/>
<feGaussianBlur in="BackgroundImageFix" stdDeviation="18"/>
<feComposite in2="SourceAlpha" operator="in" result="effect1_backgroundBlur_357_12284"/>
<feBlend mode="normal" in="SourceGraphic" in2="effect1_backgroundBlur_357_12284" result="shape"/>
<feColorMatrix in="SourceAlpha" type="matrix" values="0 0 0 0 0 0 0 0 0 0 0 0 0 0 0 0 0 0 127 0" result="hardAlpha"/>
<feOffset dy="4"/>
<feGaussianBlur stdDeviation="18"/>
<feComposite in2="hardAlpha" operator="arithmetic" k2="-1" k3="1"/>
<feColorMatrix type="matrix" values="0 0 0 0 1 0 0 0 0 1 0 0 0 0 1 0 0 0 0.36 0"/>
<feBlend mode="normal" in2="shape" result="effect2_innerShadow_357_12284"/>
<feColorMatrix in="SourceAlpha" type="matrix" values="0 0 0 0 0 0 0 0 0 0 0 0 0 0 0 0 0 0 127 0" result="hardAlpha"/>
<feOffset dy="4"/>
<feGaussianBlur stdDeviation="2"/>
<feComposite in2="hardAlpha" operator="arithmetic" k2="-1" k3="1"/>
<feColorMatrix type="matrix" values="0 0 0 0 1 0 0 0 0 1 0 0 0 0 1 0 0 0 0.15 0"/>
<feBlend mode="normal" in2="effect2_innerShadow_357_12284" result="effect3_innerShadow_357_12284"/>
<feColorMatrix in="SourceAlpha" type="matrix" values="0 0 0 0 0 0 0 0 0 0 0 0 0 0 0 0 0 0 127 0" result="hardAlpha"/>
<feOffset dy="1"/>
<feGaussianBlur stdDeviation="0.5"/>
<feComposite in2="hardAlpha" operator="arithmetic" k2="-1" k3="1"/>
<feColorMatrix type="matrix" values="0 0 0 0 1 0 0 0 0 1 0 0 0 0 1 0 0 0 0.05 0"/>
<feBlend mode="normal" in2="effect3_innerShadow_357_12284" result="effect4_innerShadow_357_12284"/>
</filter>
</defs>
</svg>
