<svg width="33" height="33" viewBox="0 0 33 33" fill="none" xmlns="http://www.w3.org/2000/svg">
<g filter="url(#filter0_biii_357_12294)">
<path fill-rule="evenodd" clip-rule="evenodd" d="M3.20405 5.48606C3.97041 3.18697 5.74493 1.36384 8.02248 0.535645L13.2665 3.48543L18 4.00003L17.911 5.00003H31C31.5523 5.00003 32 5.44775 32 6.00003V31C32 31.5523 31.5523 32 31 32H15C14.4477 32 14 31.5523 14 31V12.8449L9.989 12.6625L8.02248 12.9903L2.1229 12.3348L0.484131 10.3683L2.77841 6.76297L3.20405 5.48606Z" fill="#3680FF" fill-opacity="0.14"/>
</g>
<path d="M29.7292 32.4325H16.216C14.7256 32.4325 13.5132 31.2204 13.5132 29.7298V25.6756H32.4322V29.7298C32.4322 31.2204 31.2198 32.4325 29.7295 32.4325H29.7292ZM14.8645 27.0272V29.73C14.8645 30.4751 15.4706 31.0814 16.2159 31.0814H29.7292C30.4745 31.0814 31.0805 30.4751 31.0805 29.73V27.0272H14.8645Z" fill="white"/>
<path d="M22.9726 23.0313C22.5993 23.0313 22.2969 22.7291 22.2969 22.3556V15.5989C22.2969 15.2254 22.5993 14.9232 22.9726 14.9232C23.3459 14.9232 23.6483 15.2254 23.6483 15.5989V22.3556C23.6483 22.7291 23.3459 23.0313 22.9726 23.0313Z" fill="white"/>
<path d="M24.9998 18.2436C24.827 18.2436 24.654 18.1776 24.5221 18.0456L22.9728 16.4964L21.4233 18.0458C21.1594 18.3098 20.7317 18.3098 20.468 18.0458C20.204 17.7818 20.204 17.3542 20.468 17.0904L22.4951 15.0633C22.7591 14.7994 23.1867 14.7994 23.4505 15.0633L25.4776 17.0904C25.7415 17.3544 25.7415 17.782 25.4776 18.0458C25.3457 18.1777 25.1727 18.2436 24.9999 18.2436L24.9998 18.2436Z" fill="white"/>
<path d="M24.3243 29.7296H21.6215C21.2483 29.7296 20.9458 29.4274 20.9458 29.0539C20.9458 28.6804 21.2482 28.3782 21.6215 28.3782H24.3243C24.6976 28.3782 25 28.6804 25 29.0539C25 29.4274 24.6976 29.7296 24.3243 29.7296Z" fill="white"/>
<path d="M18.3017 13.5134H3.31965C1.48911 13.5134 0 11.9979 0 10.1352C0 8.46445 1.19824 7.07285 2.76602 6.80375C2.6849 6.41848 2.64397 6.02632 2.64397 5.63055C2.64397 2.52585 5.12176 0 8.16691 0C10.3315 0 12.2728 1.29724 13.1671 3.24982C13.7894 2.89347 14.493 2.70279 15.2172 2.70279C17.5247 2.70279 19.4035 4.60781 19.4182 6.95478C20.7253 7.42313 21.6215 8.67553 21.6215 10.1352C21.6215 11.9979 20.1324 13.5135 18.3019 13.5135L18.3017 13.5134ZM3.31965 8.10814C2.23416 8.10814 1.35139 9.01739 1.35139 10.1353C1.35139 11.2531 2.23416 12.1624 3.31965 12.1624H18.3023C19.3876 12.1621 20.2706 11.2529 20.2706 10.1353C20.2706 9.14488 19.5529 8.28514 18.6018 8.13462C18.2396 8.07776 17.9888 7.742 18.0374 7.37852C18.0545 7.24863 18.067 7.11726 18.067 6.98198C18.067 5.36714 16.7884 4.05396 15.2174 4.05396C14.5094 4.05396 13.8288 4.3265 13.3009 4.8206C13.1276 4.98309 12.8815 5.04313 12.6529 4.97721C12.4244 4.91177 12.247 4.73163 12.186 4.50223C11.6921 2.64672 10.0393 1.35142 8.16707 1.35142C5.86697 1.35142 3.99551 3.27093 3.99551 5.63058C3.99551 6.17172 4.09576 6.70402 4.29403 7.21355C4.38054 7.43657 4.3428 7.68852 4.19501 7.87603C4.04747 8.06401 3.81268 8.15788 3.57446 8.12798C3.49065 8.1167 3.40633 8.10812 3.31982 8.10812L3.31965 8.10814Z" fill="white"/>
<path d="M32.4323 27.0274H13.5132V12.162H18.3016C19.3871 12.162 20.2701 11.2528 20.2701 10.1352C20.2701 9.55455 20.0214 8.99897 19.5878 8.61223L18.2664 7.43237H32.4321L32.4323 27.0274ZM14.8646 25.676H31.0808V8.78408H21.3402C21.5238 9.20636 21.6213 9.66566 21.6213 10.1355C21.6213 11.9981 20.1319 13.514 18.3016 13.514L14.8646 13.5137L14.8646 25.676Z" fill="white"/>
<path d="M32.4322 8.78398H19.7798L19.5874 8.61242C19.3011 8.3563 18.96 8.19136 18.6009 8.13523L17.9497 8.0323L18.0365 7.37841C18.0536 7.24852 18.0661 7.11715 18.0661 6.9826C18.0661 6.32011 17.8421 5.68536 17.4181 5.14885L16.5542 4.05408H29.7293C31.2196 4.05408 32.4321 5.26624 32.4321 6.75685L32.4322 8.78398ZM20.2798 7.43259H31.0808V6.75686C31.0808 6.01181 30.4747 5.40547 29.7294 5.40547H19.1148C19.3118 5.89711 19.4148 6.42038 19.4177 6.95807C19.7233 7.07106 20.0138 7.23061 20.2794 7.43256L20.2798 7.43259Z" fill="white"/>
<defs>
<filter id="filter0_biii_357_12294" x="-35.5156" y="-35.4644" width="103.516" height="103.464" filterUnits="userSpaceOnUse" color-interpolation-filters="sRGB">
<feFlood flood-opacity="0" result="BackgroundImageFix"/>
<feGaussianBlur in="BackgroundImageFix" stdDeviation="18"/>
<feComposite in2="SourceAlpha" operator="in" result="effect1_backgroundBlur_357_12294"/>
<feBlend mode="normal" in="SourceGraphic" in2="effect1_backgroundBlur_357_12294" result="shape"/>
<feColorMatrix in="SourceAlpha" type="matrix" values="0 0 0 0 0 0 0 0 0 0 0 0 0 0 0 0 0 0 127 0" result="hardAlpha"/>
<feOffset dy="4"/>
<feGaussianBlur stdDeviation="18"/>
<feComposite in2="hardAlpha" operator="arithmetic" k2="-1" k3="1"/>
<feColorMatrix type="matrix" values="0 0 0 0 1 0 0 0 0 1 0 0 0 0 1 0 0 0 0.36 0"/>
<feBlend mode="normal" in2="shape" result="effect2_innerShadow_357_12294"/>
<feColorMatrix in="SourceAlpha" type="matrix" values="0 0 0 0 0 0 0 0 0 0 0 0 0 0 0 0 0 0 127 0" result="hardAlpha"/>
<feOffset dy="4"/>
<feGaussianBlur stdDeviation="2"/>
<feComposite in2="hardAlpha" operator="arithmetic" k2="-1" k3="1"/>
<feColorMatrix type="matrix" values="0 0 0 0 1 0 0 0 0 1 0 0 0 0 1 0 0 0 0.15 0"/>
<feBlend mode="normal" in2="effect2_innerShadow_357_12294" result="effect3_innerShadow_357_12294"/>
<feColorMatrix in="SourceAlpha" type="matrix" values="0 0 0 0 0 0 0 0 0 0 0 0 0 0 0 0 0 0 127 0" result="hardAlpha"/>
<feOffset dy="1"/>
<feGaussianBlur stdDeviation="0.5"/>
<feComposite in2="hardAlpha" operator="arithmetic" k2="-1" k3="1"/>
<feColorMatrix type="matrix" values="0 0 0 0 1 0 0 0 0 1 0 0 0 0 1 0 0 0 0.05 0"/>
<feBlend mode="normal" in2="effect3_innerShadow_357_12294" result="effect4_innerShadow_357_12294"/>
</filter>
</defs>
</svg>
