<svg width="22" height="32" viewBox="0 0 22 32" fill="none" xmlns="http://www.w3.org/2000/svg">
<g filter="url(#filter0_biii_357_12309)">
<path d="M0 5.48199C0 2.72057 2.23858 0.481995 5 0.481995H16.4506C19.212 0.481995 21.4506 2.72057 21.4506 5.482V26.8072C21.4506 29.5686 19.212 31.8072 16.4506 31.8072H5C2.23858 31.8072 0 29.5686 0 26.8072V5.48199Z" fill="#3680FF" fill-opacity="0.14"/>
</g>
<path d="M18.0905 32H3.42425C2.54054 31.9988 1.69322 31.6473 1.06825 31.0225C0.443449 30.3975 0.091906 29.5504 0.0908203 28.6667V7.33307H1.42408L1.4243 28.6667C1.4243 29.1971 1.63502 29.7058 2.01002 30.0808C2.38502 30.456 2.89373 30.6667 3.4243 30.6667H18.0906C18.6212 30.6667 19.1299 30.456 19.5049 30.0808C19.8799 29.7058 20.0906 29.1971 20.0906 28.6667V26H21.4239V28.6667H21.4241C21.423 29.5504 21.0714 30.3975 20.4467 31.0225C19.8216 31.6473 18.9743 31.9989 18.0907 32H18.0905Z" fill="white"/>
<path d="M20.0903 23.3332H21.4236V24.6664H20.0903V23.3332Z" fill="white"/>
<path d="M21.4246 22H20.0911V3.33324C20.0911 2.80289 19.8804 2.29416 19.5054 1.91919C19.1304 1.54397 18.6217 1.33325 18.0911 1.33325H3.4248C2.89421 1.33325 2.38548 1.54397 2.01051 1.91919C1.63551 2.29419 1.4248 2.8029 1.4248 3.33324V5.99998H0.0913086V3.33324C0.0924247 2.44953 0.443989 1.60245 1.06874 0.977425C1.69377 0.352627 2.54108 0.00108571 3.42474 0H18.091C18.9748 0.00111605 19.8221 0.352679 20.447 0.977425C21.0718 1.60245 21.4234 2.44953 21.4245 3.33324L21.4246 22Z" fill="white"/>
<path d="M14.0906 3.33331H7.42432C6.89374 3.33331 6.385 3.1226 6.01003 2.7476C5.63506 2.3726 5.42432 1.86389 5.42432 1.33332V0.666809H6.75758V1.33332C6.75758 1.51011 6.82789 1.67975 6.95289 1.80475C7.07789 1.92975 7.24753 2.00006 7.42432 2.00006H14.0906C14.2674 2.00006 14.437 1.92975 14.562 1.80475C14.687 1.67975 14.7574 1.51011 14.7574 1.33332V0.666809H16.0906V1.33332C16.0906 1.8639 15.8799 2.37263 15.5049 2.7476C15.1299 3.12257 14.6212 3.33331 14.0906 3.33331Z" fill="white"/>
<path d="M15.1381 23.6145H6.37589C5.94002 23.6145 5.5221 23.4469 5.21407 23.1487C4.90601 22.8503 4.73291 22.4458 4.73291 22.0241V14.6025C4.73291 14.1805 4.90601 13.776 5.21407 13.4778C5.52213 13.1797 5.94003 13.0121 6.37589 13.0121H7.47115V14.0723H6.37589C6.07333 14.0723 5.82817 14.3096 5.82817 14.6025V22.0241C5.82817 22.1647 5.88593 22.2996 5.98862 22.3989C6.0913 22.4983 6.23066 22.5543 6.37589 22.5543H15.1381C15.2834 22.5543 15.4227 22.4983 15.5254 22.3989C15.6281 22.2996 15.6859 22.1647 15.6859 22.0241V20.9639H16.7811V22.0241C16.7811 22.4458 16.608 22.8503 16.3 23.1487C15.9919 23.4469 15.574 23.6145 15.1381 23.6145Z" fill="white"/>
<path d="M16.7812 19.759H15.6246V14.5691C15.6246 14.4315 15.5636 14.2994 15.4552 14.2021C15.3468 14.1048 15.1996 14.0501 15.0462 14.0501H13.8896V13.0121H15.0462C15.5065 13.0121 15.9478 13.1761 16.2731 13.4681C16.5984 13.76 16.7812 14.1561 16.7812 14.5691V19.759Z" fill="white"/>
<path d="M9.0708 13.0121H12.4443V13.9759H9.0708V13.0121Z" fill="white"/>
<path d="M8.47987 14.9398H8.21477H8.21493C7.93063 14.9396 7.65797 14.8077 7.45689 14.5731C7.25601 14.3386 7.1429 14.0206 7.14258 13.6889V12.8175C7.1429 12.4858 7.25601 12.1677 7.45689 11.9331C7.65793 11.6987 7.93062 11.5667 8.21493 11.5663H8.48003H8.47987C8.76417 11.5667 9.03683 11.6987 9.23791 11.9331C9.43879 12.1676 9.5519 12.4858 9.55222 12.8175V13.6889C9.5519 14.0206 9.43879 14.3385 9.23791 14.5731C9.03687 14.8077 8.76417 14.9396 8.47987 14.9398ZM8.21477 12.6908L8.21493 12.691C8.15507 12.691 8.1065 12.7477 8.1065 12.8175V13.6889C8.1065 13.7587 8.15507 13.8154 8.21493 13.8154H8.48003H8.47987C8.50875 13.8154 8.53618 13.802 8.55667 13.7783C8.577 13.7546 8.5883 13.7224 8.5883 13.6889V12.8175C8.5883 12.7477 8.53973 12.691 8.47987 12.691L8.21477 12.6908Z" fill="white"/>
<path d="M13.5671 14.9398H13.249H13.2492C12.9081 14.9396 12.5809 14.8077 12.3396 14.5731C12.0985 14.3386 11.9628 14.0206 11.9624 13.6889V12.8175C11.9628 12.4858 12.0985 12.1677 12.3396 11.9331C12.5808 11.6987 12.9081 11.5667 13.2492 11.5663H13.5673H13.5671C13.9083 11.5667 14.2355 11.6987 14.4768 11.9331C14.7179 12.1676 14.8536 12.4858 14.854 12.8175V13.6889C14.8536 14.0206 14.7179 14.3385 14.4768 14.5731C14.2355 14.8077 13.9083 14.9396 13.5671 14.9398ZM13.249 12.6908L13.2492 12.691C13.1774 12.691 13.1191 12.7477 13.1191 12.8175V13.6889C13.1191 13.7587 13.1774 13.8154 13.2492 13.8154H13.5673H13.5671C13.6018 13.8154 13.6347 13.802 13.6593 13.7783C13.6837 13.7546 13.6973 13.7224 13.6973 13.6889V12.8175C13.6973 12.7477 13.639 12.691 13.5672 12.691L13.249 12.6908Z" fill="white"/>
<path d="M8.58838 15.4218H16.2992V16.3856H8.58838V15.4218Z" fill="white"/>
<path d="M5.21533 15.4218H7.62497V16.3856H5.21533V15.4218Z" fill="white"/>
<path d="M9.98382 20.7229C9.84712 20.7227 9.71595 20.6699 9.6193 20.5756L8.58838 19.5697L9.31725 18.8585L9.98382 19.5087L12.1969 17.3494L12.9257 18.0606L10.3483 20.5754V20.5755C10.2517 20.6699 10.1205 20.7227 9.98382 20.7229V20.7229Z" fill="white"/>
<defs>
<filter id="filter0_biii_357_12309" x="-36" y="-35.518" width="93.4507" height="103.325" filterUnits="userSpaceOnUse" color-interpolation-filters="sRGB">
<feFlood flood-opacity="0" result="BackgroundImageFix"/>
<feGaussianBlur in="BackgroundImageFix" stdDeviation="18"/>
<feComposite in2="SourceAlpha" operator="in" result="effect1_backgroundBlur_357_12309"/>
<feBlend mode="normal" in="SourceGraphic" in2="effect1_backgroundBlur_357_12309" result="shape"/>
<feColorMatrix in="SourceAlpha" type="matrix" values="0 0 0 0 0 0 0 0 0 0 0 0 0 0 0 0 0 0 127 0" result="hardAlpha"/>
<feOffset dy="4"/>
<feGaussianBlur stdDeviation="18"/>
<feComposite in2="hardAlpha" operator="arithmetic" k2="-1" k3="1"/>
<feColorMatrix type="matrix" values="0 0 0 0 1 0 0 0 0 1 0 0 0 0 1 0 0 0 0.36 0"/>
<feBlend mode="normal" in2="shape" result="effect2_innerShadow_357_12309"/>
<feColorMatrix in="SourceAlpha" type="matrix" values="0 0 0 0 0 0 0 0 0 0 0 0 0 0 0 0 0 0 127 0" result="hardAlpha"/>
<feOffset dy="4"/>
<feGaussianBlur stdDeviation="2"/>
<feComposite in2="hardAlpha" operator="arithmetic" k2="-1" k3="1"/>
<feColorMatrix type="matrix" values="0 0 0 0 1 0 0 0 0 1 0 0 0 0 1 0 0 0 0.15 0"/>
<feBlend mode="normal" in2="effect2_innerShadow_357_12309" result="effect3_innerShadow_357_12309"/>
<feColorMatrix in="SourceAlpha" type="matrix" values="0 0 0 0 0 0 0 0 0 0 0 0 0 0 0 0 0 0 127 0" result="hardAlpha"/>
<feOffset dy="1"/>
<feGaussianBlur stdDeviation="0.5"/>
<feComposite in2="hardAlpha" operator="arithmetic" k2="-1" k3="1"/>
<feColorMatrix type="matrix" values="0 0 0 0 1 0 0 0 0 1 0 0 0 0 1 0 0 0 0.05 0"/>
<feBlend mode="normal" in2="effect3_innerShadow_357_12309" result="effect4_innerShadow_357_12309"/>
</filter>
</defs>
</svg>
